<svg class="bh_ct" id="eOXcZJCUjsN1" viewBox="0 0 640 640" shape-rendering="geometricPrecision" text-rendering="geometricPrecision"><defs><filter id="eOXcZJCUjsN4-filter" x="-400%" width="600%" y="-400%" height="600%"><feGaussianBlur id="eOXcZJCUjsN4-filter-drop-shadow-0-blur" in="SourceAlpha" stdDeviation="0,0"></feGaussianBlur><feOffset id="eOXcZJCUjsN4-filter-drop-shadow-0-offset" dx="0" dy="0" result="tmp"></feOffset><feFlood id="eOXcZJCUjsN4-filter-drop-shadow-0-flood" flood-color="rgba(255,226,137,0)"></feFlood><feComposite id="eOXcZJCUjsN4-filter-drop-shadow-0-composite" operator="in" in2="tmp"></feComposite><feMerge id="eOXcZJCUjsN4-filter-drop-shadow-0-merge"><feMergeNode id="eOXcZJCUjsN4-filter-drop-shadow-0-merge-node-1"></feMergeNode><feMergeNode id="eOXcZJCUjsN4-filter-drop-shadow-0-merge-node-2" in="SourceGraphic"></feMergeNode></feMerge></filter><filter id="eOXcZJCUjsN6-filter" x="-400%" width="600%" y="-400%" height="600%"><feGaussianBlur id="eOXcZJCUjsN6-filter-drop-shadow-0-blur" in="SourceAlpha" stdDeviation="0,0"></feGaussianBlur><feOffset id="eOXcZJCUjsN6-filter-drop-shadow-0-offset" dx="0" dy="0" result="tmp"></feOffset><feFlood id="eOXcZJCUjsN6-filter-drop-shadow-0-flood" flood-color="rgba(255,226,137,0)"></feFlood><feComposite id="eOXcZJCUjsN6-filter-drop-shadow-0-composite" operator="in" in2="tmp"></feComposite><feMerge id="eOXcZJCUjsN6-filter-drop-shadow-0-merge"><feMergeNode id="eOXcZJCUjsN6-filter-drop-shadow-0-merge-node-1"></feMergeNode><feMergeNode id="eOXcZJCUjsN6-filter-drop-shadow-0-merge-node-2" in="SourceGraphic"></feMergeNode></feMerge></filter><filter id="eOXcZJCUjsN7-filter" x="-400%" width="600%" y="-400%" height="600%"><feGaussianBlur id="eOXcZJCUjsN7-filter-drop-shadow-0-blur" in="SourceAlpha" stdDeviation="0.4,0.4"></feGaussianBlur><feOffset id="eOXcZJCUjsN7-filter-drop-shadow-0-offset" dx="0" dy="0" result="tmp"></feOffset><feFlood id="eOXcZJCUjsN7-filter-drop-shadow-0-flood" flood-color="rgba(4,17,37,0)"></feFlood><feComposite id="eOXcZJCUjsN7-filter-drop-shadow-0-composite" operator="in" in2="tmp"></feComposite><feMerge id="eOXcZJCUjsN7-filter-drop-shadow-0-merge"><feMergeNode id="eOXcZJCUjsN7-filter-drop-shadow-0-merge-node-1"></feMergeNode><feMergeNode id="eOXcZJCUjsN7-filter-drop-shadow-0-merge-node-2" in="SourceGraphic"></feMergeNode></feMerge></filter></defs><g transform="matrix(.242911 0 0 0.242911 443.849372 13.465522)" clip-rule="evenodd"><path id="eOXcZJCUjsN6" d="M334,791.61c81.97-26.32,100.37-61.07,25.86-70.76-39.34-5.11-100.97-.71-186.86-1.78-29.46-.37-28.93-31.78,4.97-32.8c88.87-2.65,153.77,3.46,191.33-.77c52.73-5.93,52.52-22.61-2.51-28.05-84.76-8.37-143.91-.5-178.44-3.27-35.45-2.86-33.11-19.9-13.49-27.61c31.66-12.43,80.09-2.83,168.08-10.86c60.48-5.51,86.13-50.8,83.48-109.31-.99-21.87,6.35-41.01,23.85-51.68c127.07-77.46,175.46-218.750337,78.51-354.78-76.848876-110.170633-310.14-149.28-447.21,0-113.7,123.85-96.13,265.87,30.81,364.72c20.64,16.07,30.07,32.39,28.82,67.08-2.11,58.68,57.87,84.21,124.57,61.03c27.298602-8.987199-16.23-178.42-67.92-256.31-39.39-59.34-17.26,137.11,61.36,83.98c42.75-28.89,32.15-100.88,14.66-110.81-28.4-16.13-39.58,85.47,21.37,111.8c37.99,16.41,54.24-115.41,25.34-119.75-39.34-5.9-16.8,175.79,36.77,113.79c40.48-46.85,72.19-104.79,52.67-107.33-44.45-5.79-79.36,107.33-73.04,243.97" clip-rule="evenodd" filter="url(#eOXcZJCUjsN6-filter)" fill="none" fill-rule="evenodd" stroke="rgba(255,255,255,0.7661538461538462)" stroke-width="34.639771" stroke-linecap="round" stroke-linejoin="round" stroke-miterlimit="2.61313" stroke-dashoffset="2186.3072" stroke-dasharray="4315.08"></path></g><g transform="matrix(30 0 0 30-172.898817-331.888685)" clip-rule="evenodd" filter="url(#eOXcZJCUjsN7-filter)"><path id="eOXcZJCUjsN8" d="M18.72,25.45c.9,4.28-3.3,4.15-4.35,2.02-.76-1.53-.11-3.61,1.87-4.37c2.33-.9,4.26-3.65,2.39-5.69-.94-1.02-2.84-.69-4.06-.02" clip-rule="evenodd" fill="none" fill-rule="evenodd" stroke="#039" stroke-width="2.77" stroke-linecap="round" stroke-linejoin="round" stroke-miterlimit="2.61313" stroke-dashoffset="24.59" stroke-dasharray="24.59"></path><g clip-rule="evenodd"><g id="eOXcZJCUjsN10" transform="matrix(0.986838 -0.161713 0.161713 0.986838 -3.456314 2.89114)"><path d="M13.23,21.1v1.09c0,1.76,1.44,3.2,3.2,3.2v0c1.76,0,3.2-1.44,3.2-3.2v-1.13" clip-rule="evenodd" fill="none" fill-rule="evenodd" stroke="#fff" stroke-width="0.28" stroke-linecap="round" stroke-linejoin="round" stroke-miterlimit="2.61313"></path><g><path id="eOXcZJCUjsN13" d="M19.66,22.03c.1.05.22.07.34.07.49,0,.89-.39.89-.88c0-.43-.31-.79-.71-.87" clip-rule="evenodd" fill="none" fill-rule="evenodd" stroke="#fff" stroke-width="0.28" stroke-linecap="round" stroke-linejoin="round" stroke-miterlimit="2.61313" transform="matrix(0.646936 0 0 0.646936 6.92811 7.45605)"></path><path id="eOXcZJCUjsN14" d="M13.2,22.03c-.1.05-.22.07-.34.07-.49,0-.89-.39-.89-.88c0-.48.37-.86.84-.89" clip-rule="evenodd" fill="none" fill-rule="evenodd" stroke="#fff" stroke-width="0.28" stroke-linecap="round" stroke-linejoin="round" stroke-miterlimit="2.61313" transform="translate(0.460524 0.075466)"></path></g><g id="eOXcZJCUjsN15" transform="translate(0.558274 -0.4868)"><g clip-rule="evenodd"><circle r="0.43" transform="translate(14.68 21.22)" clip-rule="evenodd" fill="none" fill-rule="evenodd" stroke="#fff" stroke-width="0.28" stroke-linecap="round" stroke-linejoin="round" stroke-miterlimit="2.61313"></circle><circle r="0.43" transform="translate(18.18 21.22)" clip-rule="evenodd" fill="none" fill-rule="evenodd" stroke="#fff" stroke-width="0.28" stroke-linecap="round" stroke-linejoin="round" stroke-miterlimit="2.61313"></circle></g><path d="M16.95,22.56c-.12.12-.28.19-.45.19s-.33-.07-.45-.19" clip-rule="evenodd" fill="none" fill-rule="evenodd" stroke="#fff" stroke-width="0.28" stroke-linecap="round" stroke-linejoin="round" stroke-miterlimit="2.61313"></path><path d="M17.57,23.5c-.62.45-1.46.45-2.07,0" clip-rule="evenodd" fill="none" fill-rule="evenodd" stroke="#fff" stroke-width="0.28" stroke-linecap="round" stroke-linejoin="round" stroke-miterlimit="2.61313"></path></g><path id="eOXcZJCUjsN21" d="M 13.646474 19.572713 C 13.646474 18.762713 14.033166 18.226793 14.443166 17.986793 C 14.623166 18.646793 14.944606 18.778719 15.594606 18.988719 C 16.244606 19.208719 17.085373 19.141513 17.635373 18.741513 C 17.885373 18.561513 18.359898 18.659737 18.539898 18.889737 C 18.929898 19.389737 19.01 19.62 19.63 19.65 C 19.63 20.14 19.63 20.61 19.63 21.06 C 20.09 20.84 20.228661 20.239612 20.318661 18.949612 C 20.338661 18.719612 20.223629 18.196058 20.403629 18.056058 C 21.263629 17.386058 20.968859 16.400652 20.178859 16.300652 C 19.078859 16.150652 18.769645 16.630395 18.529645 16.030395 C 17.639645 13.850395 14.338054 14.646189 13.818054 16.576189 C 12.898054 16.886189 12.432432 17.32319 12.242432 18.27319 C 12.052432 19.22319 12.72 20.34 13.23 21.1 C 13.23 20.36 13.719865 20.980528 13.644867 19.582521 Z" clip-rule="evenodd" fill="none" fill-rule="evenodd" stroke="#fff" stroke-width="0.28" stroke-linecap="round" stroke-linejoin="round" stroke-miterlimit="2.61313"></path></g><path d="M15.44,25.25v.73m1.94,0v-.73" clip-rule="evenodd" fill="none" fill-rule="evenodd" stroke="#fff" stroke-width="0.28" stroke-linecap="round" stroke-linejoin="round" stroke-miterlimit="2.61313"></path><path d="M15.09,25.98h2.64c.17,0,.32.14.32.31v.2c-1.09,0-2.18,0-3.27,0v-.2c0-.17.14-.31.31-.31Z" clip-rule="evenodd" fill="none" fill-rule="evenodd" stroke="#fff" stroke-width="0.28" stroke-miterlimit="2.61313"></path><path d="M21.25,28.83c0-1.28-1.05-2.34-2.34-2.34h-5c-1.28,0-2.33,1.06-2.33,2.34" clip-rule="evenodd" fill="none" fill-rule="evenodd" stroke="#fff" stroke-width="0.28" stroke-linecap="round" stroke-linejoin="round" stroke-miterlimit="2.61313"></path></g></g></svg>