<?xml version="1.0" encoding="UTF-8"?><svg xmlns="http://www.w3.org/2000/svg" xmlns:xlink="http://www.w3.org/1999/xlink" viewBox="0 0 300 300" id="el_r_f-OOIky" width="100%" height="100%"><style>@-webkit-keyframes el_xc8twN2isZ_v7EubqV91_Animation{0%{-webkit-transform: translate(0px, 0px) translate(0px, 0px) translate(90px, 0px);transform: translate(0px, 0px) translate(0px, 0px) translate(90px, 0px);}50%{-webkit-transform: translate(0px, 0px) translate(0px, 0px) translate(-50px, 0px);transform: translate(0px, 0px) translate(0px, 0px) translate(-50px, 0px);}100%{-webkit-transform: translate(0px, 0px) translate(0px, 0px) translate(90px, 0px);transform: translate(0px, 0px) translate(0px, 0px) translate(90px, 0px);}}@keyframes el_xc8twN2isZ_v7EubqV91_Animation{0%{-webkit-transform: translate(0px, 0px) translate(0px, 0px) translate(90px, 0px);transform: translate(0px, 0px) translate(0px, 0px) translate(90px, 0px);}50%{-webkit-transform: translate(0px, 0px) translate(0px, 0px) translate(-50px, 0px);transform: translate(0px, 0px) translate(0px, 0px) translate(-50px, 0px);}100%{-webkit-transform: translate(0px, 0px) translate(0px, 0px) translate(90px, 0px);transform: translate(0px, 0px) translate(0px, 0px) translate(90px, 0px);}}@-webkit-keyframes el_rf5J05cZMD_sKU9UWH0A_Animation{0%{-webkit-transform: translate(153.31999397277832px, 155.3735580444336px) translate(-153.31999397277832px, -155.3735580444336px) translate(-80px, 0px);transform: translate(153.31999397277832px, 155.3735580444336px) translate(-153.31999397277832px, -155.3735580444336px) translate(-80px, 0px);}50%{-webkit-transform: translate(153.31999397277832px, 155.3735580444336px) translate(-153.31999397277832px, -155.3735580444336px) translate(10px, 0px);transform: translate(153.31999397277832px, 155.3735580444336px) translate(-153.31999397277832px, -155.3735580444336px) translate(10px, 0px);}100%{-webkit-transform: translate(153.31999397277832px, 155.3735580444336px) translate(-153.31999397277832px, -155.3735580444336px) translate(-80px, 0px);transform: translate(153.31999397277832px, 155.3735580444336px) translate(-153.31999397277832px, -155.3735580444336px) translate(-80px, 0px);}}@keyframes el_rf5J05cZMD_sKU9UWH0A_Animation{0%{-webkit-transform: translate(153.31999397277832px, 155.3735580444336px) translate(-153.31999397277832px, -155.3735580444336px) translate(-80px, 0px);transform: translate(153.31999397277832px, 155.3735580444336px) translate(-153.31999397277832px, -155.3735580444336px) translate(-80px, 0px);}50%{-webkit-transform: translate(153.31999397277832px, 155.3735580444336px) translate(-153.31999397277832px, -155.3735580444336px) translate(10px, 0px);transform: translate(153.31999397277832px, 155.3735580444336px) translate(-153.31999397277832px, -155.3735580444336px) translate(10px, 0px);}100%{-webkit-transform: translate(153.31999397277832px, 155.3735580444336px) translate(-153.31999397277832px, -155.3735580444336px) translate(-80px, 0px);transform: translate(153.31999397277832px, 155.3735580444336px) translate(-153.31999397277832px, -155.3735580444336px) translate(-80px, 0px);}}#el_r_f-OOIky *{-webkit-animation-duration: 5s;animation-duration: 5s;-webkit-animation-iteration-count: infinite;animation-iteration-count: infinite;-webkit-animation-timing-function: cubic-bezier(0, 0, 1, 1);animation-timing-function: cubic-bezier(0, 0, 1, 1);}#el_oO6Owjs7nM{isolation: isolate;}#el_WqIq4mej6D{fill: #ff7676;}#el_SJduJ5Riry{fill: #fff;}#el_ygjLgaB-FX{fill: #87a2c9;}#el_F31b9uOWbB{opacity: 0.6;mix-blend-mode: multiply;fill: url(#radial-gradient);}#el_A1oudJRsVS{-webkit-clip-path: url(#clip-path);clip-path: url(#clip-path);}#el_xc8twN2isZ{fill: #ff7676;}#el_rf5J05cZMD_ma8LBlCqH{-webkit-transform: translate(153.31999397277832px, 155.3735580444336px) translate(-153.31999397277832px, -155.3735580444336px) translate(10px, 0px);transform: translate(153.31999397277832px, 155.3735580444336px) translate(-153.31999397277832px, -155.3735580444336px) translate(10px, 0px);}#el_rf5J05cZMD_sKU9UWH0A{-webkit-animation-name: el_rf5J05cZMD_sKU9UWH0A_Animation;animation-name: el_rf5J05cZMD_sKU9UWH0A_Animation;-webkit-transform: translate(153.31999397277832px, 155.3735580444336px) translate(-153.31999397277832px, -155.3735580444336px) translate(-80px, 0px);transform: translate(153.31999397277832px, 155.3735580444336px) translate(-153.31999397277832px, -155.3735580444336px) translate(-80px, 0px);-webkit-animation-timing-function: cubic-bezier(0.42, 0, 0.58, 1);animation-timing-function: cubic-bezier(0.42, 0, 0.58, 1);}#el_xc8twN2isZ_v7EubqV91{-webkit-animation-name: el_xc8twN2isZ_v7EubqV91_Animation;animation-name: el_xc8twN2isZ_v7EubqV91_Animation;-webkit-transform: translate(0px, 0px) translate(0px, 0px) translate(90px, 0px);transform: translate(0px, 0px) translate(0px, 0px) translate(90px, 0px);-webkit-animation-timing-function: cubic-bezier(0.42, 0, 0.58, 1);animation-timing-function: cubic-bezier(0.42, 0, 0.58, 1);}</style><defs><radialGradient id="radial-gradient" cx="153.32" cy="134.87" r="55" gradientUnits="userSpaceOnUse"><stop offset="0" stop-color="#fff" stop-opacity="0"/><stop offset="0.38" stop-color="#fdfeff" stop-opacity="0.01"/><stop offset="0.52" stop-color="#f7fcfe" stop-opacity="0.04"/><stop offset="0.62" stop-color="#ebf7fc" stop-opacity="0.09"/><stop offset="0.7" stop-color="#dbf1fa" stop-opacity="0.17"/><stop offset="0.77" stop-color="#c6e9f7" stop-opacity="0.26"/><stop offset="0.83" stop-color="#acdef3" stop-opacity="0.39"/><stop offset="0.88" stop-color="#8dd2ef" stop-opacity="0.53"/><stop offset="0.93" stop-color="#69c4ea" stop-opacity="0.7"/><stop offset="0.97" stop-color="#41b4e5" stop-opacity="0.88"/><stop offset="1" stop-color="#27aae1"/></radialGradient><clipPath id="clip-path"><circle id="Mask" class="cls-1" cx="153.32" cy="134.87" r="55"/></clipPath></defs><title>Magnifier</title><g id="el_oO6Owjs7nM"><g id="el_wloKA45v7Y" data-name="Layer 1"><path id="el_WqIq4mej6D" d="M31.36,124.38a5,5,0,0,1,4.93-4.93H97.11a4.93,4.93,0,1,1,0,9.86H36.29A5,5,0,0,1,31.36,124.38Zm158.36,4.93h46a4.93,4.93,0,1,0,0-9.86h-46a4.93,4.93,0,1,0,0,9.86Zm61.1,0h12.9a4.93,4.93,0,1,0,0-9.86h-12.9a4.93,4.93,0,0,0,0,9.86Zm-128.59-9.86H114.1a4.93,4.93,0,1,0,0,9.86h8.12a4.93,4.93,0,0,0,0-9.86Zm16.54,9.86h35.34a4.93,4.93,0,1,0,0-9.86H138.76a4.93,4.93,0,1,0,0,9.86Zm-21.69,9.86H89.39a4.93,4.93,0,1,0,0,9.86h27.67a4.93,4.93,0,1,0,0-9.86Zm86,0h-71a4.93,4.93,0,1,0,0,9.86h71a4.93,4.93,0,0,0,0-9.86Zm60.64,0H220.37a4.93,4.93,0,1,0,0,9.86h43.34a4.93,4.93,0,1,0,0-9.86Zm-193.13,0H36.29a4.93,4.93,0,1,0,0,9.86H70.58a4.93,4.93,0,1,0,0-9.86Z"/><g id="el_rf5J05cZMD_sKU9UWH0A" data-animator-group="true" data-animator-type="0"><g id="el_rf5J05cZMD"><circle id="el_SJduJ5Riry" cx="153.32" cy="134.87" r="55"/><path id="el_ygjLgaB-FX" d="M222.66,134.87a69.34,69.34,0,1,0-69.34,69.34A69.42,69.42,0,0,0,222.66,134.87Zm-69.34,55a55,55,0,1,1,55-55A55.07,55.07,0,0,1,153.32,189.87Zm70.08,53.47h0a12,12,0,0,1-16.51-3.59L189.65,213a12,12,0,0,1,3.59-16.51h0A12,12,0,0,1,209.75,200L227,226.83A12,12,0,0,1,223.4,243.34Z"/><circle id="el_F31b9uOWbB" cx="153.32" cy="134.87" r="55"/><g id="el_zBsU-ZvStL" data-name="Mask"><g id="el_A1oudJRsVS"><g id="el_xc8twN2isZ_v7EubqV91" data-animator-group="true" data-animator-type="0"><path id="el_xc8twN2isZ" d="M19.48,113.67A15,15,0,0,1,34.42,98.73h94.4a14.94,14.94,0,1,1,0,29.87H34.42A15,15,0,0,1,19.48,113.67Zm153,14.94h94.4a14.94,14.94,0,1,0,0-29.87h-94.4a14.94,14.94,0,0,0,0,29.87Zm30.77,12.53H132.51a14.94,14.94,0,0,0,0,29.87H203.2a14.94,14.94,0,0,0,0-29.87Zm-110.43,0H34.42a14.94,14.94,0,1,0,0,29.87H92.77a14.94,14.94,0,1,0,0-29.87Zm179.44,0H242.94a14.94,14.94,0,1,0,0,29.87h29.28a14.94,14.94,0,1,0,0-29.87Z"/></g></g></g></g></g></g></g></svg>